<svg width="110" height="40" viewBox="0 0 110 40" fill="none" xmlns="http://www.w3.org/2000/svg">
<g filter="url(#filter0_d)">
<path fill-rule="evenodd" clip-rule="evenodd" d="M43.7406 0H36.9811V3.40774H33.5721V6.75959H30.2214V10.1114H26.8128V12.0101H23.4622V13.5191H19.9974V15.6982H16.758V20.2783V22.4576H16.7578V20.2783V16.9264H9.999H9.99832H9.10532V16.0881H8.26694V15.4177H6.75943V13.5191H5.75515V12.6807H5.02689V10.335H1.67511V12.0101H0.726604V13.5191H0V20.2785H1.67511V21.955H3.23957V23.6859H4.91633V25.3626H6.53395V26.5353H8.26722V27.7636H10.8925V29.217H13.2381V29.8872H16.758V30.3897H23.4074H23.5175H30.1668V29.217H33.6305V28.2104H36.9809V27.0377V21.451V20.2785V20.2783V13.5191H33.5723V13.519H36.9809V10.1672H36.9811V13.519H43.7404H43.7406H50.4998H57.259H57.2592H64.0185V10.1672H64.019V13.519V20.2783V20.2785V21.451V27.0377V28.2104H67.3691V29.217H70.8335V30.3897H77.4824H77.5929H84.2418V29.8872H87.7617V29.217H90.1071V27.7636H92.7331V26.5353H94.4661V25.3626H96.0837V23.6859H97.7605V21.955H99.3247V20.2785H101V13.5191H100.274V12.0101H99.3247V10.335H95.9729V12.6807H95.2452V13.5191H94.2406V15.4177H92.7336V16.0881H91.8952V16.9264H91.0015H91.0011H84.2421V20.2783V22.4576H84.2418V20.2783V15.6982H81.0025V13.5191H77.5381V12.0101H74.1872V10.1114H70.7784V6.75959H67.4282V3.40774H64.0185V0H57.259V3.40774H53.9091V6.75959H50.4998H47.091V3.40774H43.7406V0ZM40.3315 6.75944H40.3315V6.75959H40.3315V6.75944ZM43.7406 13.5191H50.4998H57.259H57.2592H64.0185V20.2783V20.2785V27.0377H57.2592H57.259H50.4998H43.7406H43.7404H36.9811V20.2785V20.2783V13.5191H43.7404H43.7406ZM3.351 8.65827H4.07926H4.91764V7.82157H6.59353V9.49746H5.75515V10.3342H5.02689H4.07926H3.351V8.65827ZM60.6685 6.75944H60.6688V6.75959H60.6685V6.75944ZM70.7784 20.2785V21.451V22.4576H70.7787V21.4511V20.2783V18.7696V16.8709H70.7784V20.2783V20.2785ZM97.6488 8.65827H96.9211H96.0827V7.82157H94.4068V9.49746H95.2452V10.3342H95.9729H96.9211H97.6488V8.65827Z" fill="black"/>
</g>
<defs>
<filter id="filter0_d" x="0" y="0" width="110" height="39.3897" filterUnits="userSpaceOnUse" color-interpolation-filters="sRGB">
<feFlood flood-opacity="0" result="BackgroundImageFix"/>
<feColorMatrix in="SourceAlpha" type="matrix" values="0 0 0 0 0 0 0 0 0 0 0 0 0 0 0 0 0 0 127 0"/>
<feOffset dx="9" dy="9"/>
<feColorMatrix type="matrix" values="0 0 0 0 0 0 0 0 0 0 0 0 0 0 0 0 0 0 0.25 0"/>
<feBlend mode="normal" in2="BackgroundImageFix" result="effect1_dropShadow"/>
<feBlend mode="normal" in="SourceGraphic" in2="effect1_dropShadow" result="shape"/>
</filter>
</defs>
</svg>
